HIERARCHY
ROOT Hips
{
  OFFSET 52.2558 86.4706 4.20045
  CHANNELS 6 Xposition Yposition Zposition Zrotation Xrotation Yrotation
  JOINT spine
  {
    OFFSET 0 6.84637 0.3937
    CHANNELS 3 Zrotation Xrotation Yrotation
    JOINT spine1
    {
      OFFSET 0 9.49621 0
      CHANNELS 3 Zrotation Xrotation Yrotation
      JOINT spine2
      {
        OFFSET 0 9.09909 0
        CHANNELS 3 Zrotation Xrotation Yrotation
        JOINT Neck
        {
          OFFSET 0 23.3612 1.11378
          CHANNELS 3 Zrotation Xrotation Yrotation
          JOINT Head
          {
            OFFSET 0 7.05802 0
            CHANNELS 3 Zrotation Xrotation Yrotation
            End Site
            {
              OFFSET 0 17.0844 -5.63419
            }
          }
        }
        JOINT RightShoulder
        {
          OFFSET -3.83136 9.82631 -0.533491
          CHANNELS 3 Zrotation Xrotation Yrotation
          JOINT RightArm
          {
            OFFSET 0 12.8881 0
            CHANNELS 3 Zrotation Xrotation Yrotation
            JOINT RightArmRoll
            {
              OFFSET 0 6.50617 0
              CHANNELS 3 Zrotation Xrotation Yrotation
              JOINT RightForeArm
              {
                OFFSET 0 18.9501 0
                CHANNELS 3 Zrotation Xrotation Yrotation
                JOINT RightForeArmRoll
                {
                  OFFSET 0 7.30093 0
                  CHANNELS 3 Zrotation Xrotation Yrotation
                  JOINT RightHand
                  {
                    OFFSET 0 14.6514 0
                    CHANNELS 3 Zrotation Xrotation Yrotation
                    End Site
                    {
                      OFFSET 0 0 0
                    }
                  }
                }
              }
            }
          }
        }
        JOINT LeftShoulder
        {
          OFFSET 3.83136 9.82631 -0.533491
          CHANNELS 3 Zrotation Xrotation Yrotation
          JOINT LeftArm
          {
            OFFSET 0 12.8881 0
            CHANNELS 3 Zrotation Xrotation Yrotation
            JOINT LeftArmRoll
            {
              OFFSET 0 6.50617 0
              CHANNELS 3 Zrotation Xrotation Yrotation
              JOINT LeftForeArm
              {
                OFFSET 0 18.9501 0
                CHANNELS 3 Zrotation Xrotation Yrotation
                JOINT LeftForeArmRoll
                {
                  OFFSET 0 7.30093 0
                  CHANNELS 3 Zrotation Xrotation Yrotation
                  JOINT LeftHand
                  {
                    OFFSET 0 14.6514 0
                    CHANNELS 3 Zrotation Xrotation Yrotation
                    End Site
                    {
                      OFFSET 0 0 0
                    }
                  }
                }
              }
            }
          }
        }
      }
    }
  }
  JOINT RightUpLeg
  {
    OFFSET -6.06837 -1.11278 -0.933477
    CHANNELS 3 Zrotation Xrotation Yrotation
    JOINT RightUpLegRoll
    {
      OFFSET 0 17.1796 0
      CHANNELS 3 Zrotation Xrotation Yrotation
      JOINT RightLeg
      {
        OFFSET 0 -21.2743 0
        CHANNELS 3 Zrotation Xrotation Yrotation
        JOINT RightLegRoll
        {
          OFFSET 0 21.3439 0
          CHANNELS 3 Zrotation Xrotation Yrotation
          JOINT RightFoot
          {
            OFFSET 0 17.7652 0
            CHANNELS 3 Zrotation Xrotation Yrotation
            JOINT RightToeBase
            {
              OFFSET 0 14.8508 0
              CHANNELS 3 Zrotation Xrotation Yrotation
              End Site
              {
                OFFSET 0.0062947 7.19214 -0.829005
              }
            }
          }
        }
      }
    }
  }
  JOINT LeftUpLeg
  {
    OFFSET 6.06837 -1.11278 -0.933477
    CHANNELS 3 Zrotation Xrotation Yrotation
    JOINT LeftUpLegRoll
    {
      OFFSET 0 17.1797 0
      CHANNELS 3 Zrotation Xrotation Yrotation
      JOINT LeftLeg
      {
        OFFSET 0 21.2742 0
        CHANNELS 3 Zrotation Xrotation Yrotation
        JOINT LeftLegRoll
        {
          OFFSET 0 21.5412 0
          CHANNELS 3 Zrotation Xrotation Yrotation
          JOINT LeftFoot
          {
            OFFSET 0 17.5679 0
            CHANNELS 3 Zrotation Xrotation Yrotation
            JOINT LeftToeBase
            {
              OFFSET 0 14.8508 0
              CHANNELS 3 Zrotation Xrotation Yrotation
              End Site
              {
                OFFSET -0.0282102 7.19214 -0.829005
              }
            }
          }
        }
      }
    }
  }
}
MOTION
Frames: 13
Frame Time: 0.00208333
52.6086 86.6541 4.12197 0.185011 -1.84289 2.40526 2.49526 -0.277734 0.662863 4.99522 3.46475 1.01321 4.9898 5.10609 0.930416 -29.951 18.9505 8.80977 10.4629 15.8662 -2.36644 35.9896 -4.51136 -0.892922 110.385 44.1948 -21.5663 4.89448e-009 -1.21252e-006 -3.59924e-006 4.39409 54.465 -0.0963382 -5.37062e-006 -3.89858e-006 -3.00231 8.0289 -4.95148 0.697699 -61.3901 -9.73298 6.05665 -100.761 42.2329 27.2174 1.52525e-005 3.11965e-006 1.32509e-006 -14.9945 65.3372 9.56024 4.77421e-006 3.55589e-006 3.00885 -8.02888 -4.95144 -0.697664 178.28 13.7099 -1.4221 -180 7.01535e-015 178.873 176.391 23.9749 -179.823 -2.45299e-006 -1.98149e-007 0.52575 -22.8187 71.6473 23.2451 8.13649 25.2326 -3.48774 -179.482 12.2854 2.03709 4.54188e-006 -4.6773e-006 -1.07984 -0.623573 -24.6141 0.757774 -8.96817e-007 -4.47747e-006 -0.751364 23.0388 73.5885 -25.5118 -8.13649 25.2327 3.48774 
52.6288 86.6458 4.12547 0.136592 -1.81965 2.32695 2.49156 -0.291954 0.65846 4.98785 3.43614 1.00541 4.98248 5.07749 0.922731 -29.6042 18.909 8.71967 10.1959 15.8902 -2.30698 36.25 -4.62474 -1.02618 110.269 43.6759 -22.0915 4.89448e-009 -1.21252e-006 -3.59924e-006 3.86607 55.0525 0.263883 -5.37062e-006 -3.89858e-006 -3.0023 8.0289 -4.95148 0.697699 -61.142 -9.65126 6.00638 -101.062 42.8413 26.9163 1.52525e-005 3.11965e-006 1.32509e-006 -15.4936 64.7535 9.79907 4.77421e-006 3.55589e-006 3.00885 -8.02888 -4.95144 -0.697664 178.321 13.7188 -1.45384 -180 -7.01535e-015 178.873 176.391 23.9323 -179.824 -2.45299e-006 -1.98149e-007 0.523517 -22.7788 71.6241 23.2154 8.13649 25.2326 -3.48774 -179.436 12.3346 2.01373 4.54188e-006 -4.6773e-006 -1.07774 -0.612968 -24.6668 0.763502 -8.96817e-007 -4.47747e-006 -0.754178 23.0696 73.6154 -25.5501 -8.13649 25.2327 3.48774 
52.6456 86.6552 4.13976 0.093631 -1.79478 2.24827 2.48647 -0.306139 0.652906 4.97773 3.40755 0.995498 4.97243 5.04892 0.912974 -29.2673 18.8632 8.63594 9.93976 15.9157 -2.24483 36.5026 -4.73346 -1.15391 110.159 43.157 -22.608 4.89449e-009 -1.21252e-006 -3.59924e-006 3.3206 55.6301 0.639451 -5.37062e-006 -3.89858e-006 -3.00228 8.0289 -4.95148 0.697699 -60.9012 -9.5722 5.95741 -101.353 43.4454 26.6133 1.52525e-005 3.11965e-006 1.32509e-006 -15.9602 64.175 10.0145 4.77421e-006 3.55589e-006 3.00885 -8.02888 -4.95144 -0.697664 178.355 13.7327 -1.48264 -180 7.01535e-015 178.872 176.392 23.8961 -179.826 -2.45299e-006 -1.98149e-007 0.521467 -22.7405 71.6037 23.1889 8.13649 25.2326 -3.48774 -179.396 12.3805 1.98845 4.54188e-006 -4.6773e-006 -1.07612 -0.610671 -24.715 0.765663 -8.96817e-007 -4.47747e-006 -0.756572 23.1113 73.6421 -25.5902 -8.13649 25.2327 3.48774 
52.6381 86.6716 4.14255 0.0567474 -1.76815 2.16913 2.47986 -0.320308 0.646105 4.96455 3.37894 0.983302 4.95933 5.02033 0.900984 -28.9416 18.813 8.55954 9.696 15.9426 -2.17959 36.7467 -4.83701 -1.27566 110.057 42.6385 -23.1152 4.8945e-009 -1.21252e-006 -3.59924e-006 2.75868 56.1967 1.02997 -5.37062e-006 -3.89858e-006 -3.00227 8.0289 -4.95148 0.697699 -60.6686 -9.49612 5.90998 -101.632 44.0449 26.3083 1.52525e-005 3.11965e-006 1.32509e-006 -16.3946 63.6035 10.2075 4.77421e-006 3.55589e-006 3.00885 -8.02888 -4.95144 -0.697664 178.383 13.7519 -1.50821 -180 7.01535e-015 178.872 176.396 23.8672 -179.828 -2.45299e-006 -1.98149e-007 0.519628 -22.7038 71.5863 23.166 8.13649 25.2326 -3.48774 -179.364 12.4226 1.96088 4.54188e-006 -4.6773e-006 -1.07503 -0.617809 -24.7581 0.76377 -8.96817e-007 -4.47747e-006 -0.758496 23.1658 73.6688 -25.6327 -8.13649 25.2327 3.48774 
52.6618 86.658 4.15606 0.025644 -1.74032 2.0897 2.47176 -0.334307 0.638077 4.94842 3.35061 0.96884 4.94331 4.99203 0.886777 -28.6259 18.7579 8.48953 9.46307 15.9709 -2.11144 36.9827 -4.93581 -1.39131 109.964 42.1201 -23.6166 4.89448e-009 -1.21252e-006 -3.59924e-006 2.17325 56.7545 1.44054 -5.37062e-006 -3.89858e-006 -3.00226 8.0289 -4.95148 0.697699 -60.4435 -9.42245 5.86356 -101.905 44.641 25.9971 1.52525e-005 3.11965e-006 1.32509e-006 -16.8034 63.0362 10.3831 4.77421e-006 3.55589e-006 3.00885 -8.02888 -4.95144 -0.697664 178.405 13.7755 -1.53229 -180 7.01535e-015 178.873 176.402 23.8454 -179.831 -2.45299e-006 -1.98149e-007 0.518081 -22.6683 71.5723 23.147 8.13649 25.2326 -3.48774 -179.338 12.4612 1.92981 4.54188e-006 -4.6773e-006 -1.07442 -0.635133 -24.7968 0.757516 -8.96817e-007 -4.47747e-006 -0.759911 23.2334 73.6953 -25.6773 -8.13649 25.2327 3.48774 
52.6756 86.6626 4.15569 -0.000607207 -1.71181 2.01022 2.4624 -0.348 0.628943 4.92974 3.32284 0.952319 4.92476 4.96428 0.87055 -28.3177 18.6979 8.42412 9.2379 16.0004 -2.04096 37.2121 -5.03075 -1.50127 109.876 41.6011 -24.116 4.89448e-009 -1.21252e-006 -3.59924e-006 1.55681 57.3063 1.87648 -5.37062e-006 -3.89858e-006 -3.00224 8.0289 -4.95148 0.697699 -60.2244 -9.35035 5.8175 -102.177 45.2355 25.6759 1.52525e-005 3.11965e-006 1.32509e-006 -17.1933 62.4695 10.5456 4.77421e-006 3.55589e-006 3.00885 -8.02888 -4.95144 -0.697664 178.423 13.8022 -1.55645 -180 7.01535e-015 178.873 176.412 23.8298 -179.835 -2.45299e-006 -1.98149e-007 0.516854 -22.6334 71.5616 23.1315 8.13649 25.2326 -3.48774 -179.317 12.4971 1.89476 4.54188e-006 -4.6773e-006 -1.07414 -0.661903 -24.8326 0.747229 -8.96817e-007 -4.47747e-006 -0.760842 23.3125 73.7214 -25.7237 -8.13649 25.2327 3.48774 
52.6907 86.6609 4.16751 -0.022331 -1.6825 1.93067 2.45187 -0.361434 0.618768 4.9087 3.29553 0.933853 4.90388 4.93701 0.852416 -28.0165 18.6333 8.36298 9.01992 16.0311 -1.96839 37.4353 -5.12205 -1.60592 109.795 41.0816 -24.6128 4.89451e-009 -1.21252e-006 -3.59924e-006 0.909794 57.8515 2.33767 -5.37062e-006 -3.89858e-006 -3.00223 8.0289 -4.95148 0.697699 -60.0107 -9.27983 5.77187 -102.447 45.8279 25.3457 1.52525e-005 3.11965e-006 1.32509e-006 -17.564 61.9035 10.6947 4.77421e-006 3.55589e-006 3.00885 -8.02888 -4.95144 -0.697664 178.437 13.8319 -1.58019 -180 7.01535e-015 178.874 176.425 23.8197 -179.84 -2.45299e-006 -1.98149e-007 0.515894 -22.5991 71.5535 23.1191 8.13649 25.2326 -3.48774 -179.301 12.5308 1.85646 4.54188e-006 -4.6773e-006 -1.07417 -0.69701 -24.8654 0.733381 -8.96817e-007 -4.47747e-006 -0.761341 23.4015 73.747 -25.7713 -8.13649 25.2327 3.48774 
52.7068 86.6588 4.17763 -0.0398511 -1.65224 1.85107 2.44025 -0.374658 0.607615 4.88548 3.26859 0.913557 4.88084 4.91011 0.832487 -27.7218 18.5645 8.30578 8.80857 16.0628 -1.89393 37.6527 -5.20992 -1.70561 109.718 40.5617 -25.1068 4.89447e-009 -1.21252e-006 -3.59924e-006 0.232724 58.3898 2.8239 -5.37062e-006 -3.89858e-006 -3.00222 8.0289 -4.95148 0.697699 -59.8021 -9.21085 5.72667 -102.714 46.4177 25.0075 1.52525e-005 3.11965e-006 1.32509e-006 -17.9155 61.3382 10.8304 4.77421e-006 3.55589e-006 3.00885 -8.02888 -4.95144 -0.697664 178.447 13.8647 -1.60303 -180 7.01536e-015 178.875 176.441 23.8145 -179.846 -2.45299e-006 -1.98149e-007 0.515148 -22.5655 71.5478 23.1094 8.13649 25.2326 -3.48774 -179.289 12.5627 1.81568 4.54188e-006 -4.6773e-006 -1.07449 -0.739342 -24.8954 0.716446 -8.96817e-007 -4.47747e-006 -0.761462 23.4991 73.7721 -25.82 -8.13649 25.2327 3.48774 
52.722 86.6593 4.18544 -0.0534907 -1.6209 1.77142 2.42762 -0.387719 0.595545 4.86025 3.24194 0.891548 4.8558 4.88349 0.810878 -27.4333 18.4917 8.2522 8.60326 16.0955 -1.8178 37.8647 -5.29459 -1.80072 109.645 40.0415 -25.5976 4.89449e-009 -1.21252e-006 -3.59924e-006 -0.473818 58.9207 3.33495 -5.37062e-006 -3.89858e-006 -3.0022 8.0289 -4.95148 0.697699 -59.5983 -9.14341 5.68197 -102.974 47.0045 24.6625 1.52525e-005 3.11965e-006 1.32509e-006 -18.2476 60.7735 10.9525 4.77421e-006 3.55589e-006 3.00885 -8.02888 -4.95144 -0.697664 178.453 13.9005 -1.62447 -180 7.01536e-015 178.876 176.458 23.8136 -179.852 -2.45299e-006 -1.98149e-007 0.514564 -22.5326 71.5441 23.1018 8.13649 25.2326 -3.48774 -179.282 12.5931 1.77314 4.54188e-006 -4.6773e-006 -1.0751 -0.787784 -24.9226 0.696896 -8.96817e-007 -4.47747e-006 -0.761258 23.6038 73.7967 -25.8694 -8.13649 25.2327 3.48774 
52.7511 86.6547 4.18591 -0.063572 -1.58834 1.69172 2.41408 -0.400665 0.582624 4.83318 3.21548 0.867941 4.82894 4.85708 0.787699 -27.1504 18.4153 8.20191 8.40343 16.1292 -1.74022 38.0718 -5.37626 -1.89161 109.576 39.5208 -26.085 4.8945e-009 -1.21252e-006 -3.59924e-006 -1.20917 59.4437 3.87049 -5.37062e-006 -3.89858e-006 -3.00219 8.0289 -4.95148 0.697699 -59.3987 -9.07748 5.6378 -103.227 47.588 24.3118 1.52525e-005 3.11965e-006 1.32509e-006 -18.5602 60.2095 11.0609 4.77421e-006 3.55589e-006 3.00885 -8.02888 -4.95144 -0.697664 178.455 13.9394 -1.64401 -180 7.01536e-015 178.877 176.476 23.8164 -179.859 -2.45299e-006 -1.98149e-007 0.51409 -22.5005 71.5419 23.0961 8.13649 25.2326 -3.48774 -179.278 12.6224 1.72961 4.54188e-006 -4.6773e-006 -1.07597 -0.841222 -24.9473 0.675206 -8.96817e-007 -4.47747e-006 -0.760779 23.7142 73.8206 -25.9192 -8.13649 25.2327 3.48774 
52.7648 86.6571 4.1954 -0.0704167 -1.55444 1.61197 2.39972 -0.413544 0.568912 4.80445 3.18912 0.842851 4.80044 4.83076 0.763065 -26.8728 18.3357 8.15458 8.20851 16.1637 -1.6614 38.2745 -5.45515 -1.97866 109.51 39 -26.5685 4.89448e-009 -1.21252e-006 -3.59924e-006 -1.97258 59.9584 4.43016 -5.37062e-006 -3.89858e-006 -3.00218 8.0289 -4.95148 0.697699 -59.203 -9.01306 5.59419 -103.472 48.1676 23.9568 1.52525e-005 3.11965e-006 1.32509e-006 -18.8533 59.6462 11.1553 4.77421e-006 3.55589e-006 3.00885 -8.02888 -4.95144 -0.697664 178.454 13.9813 -1.66117 -180 7.01537e-015 178.879 176.494 23.8224 -179.865 -2.45299e-006 -1.98149e-007 0.513671 -22.4693 71.5408 23.0916 8.13649 25.2326 -3.48774 -179.279 12.651 1.68582 4.54188e-006 -4.6773e-006 -1.07708 -0.898538 -24.9694 0.651852 -8.96817e-007 -4.47747e-006 -0.76008 23.8288 73.8438 -25.969 -8.13649 25.2327 3.48774 
52.8264 86.6448 4.15081 -0.0743456 -1.51904 1.53218 2.38462 -0.426403 0.554474 4.77424 3.16278 0.816394 4.77047 4.80447 0.737087 -26.5999 18.2531 8.10989 8.01793 16.1991 -1.58158 38.4731 -5.53148 -2.06223 109.446 38.4789 -27.048 4.89448e-009 -1.21252e-006 -3.59924e-006 -2.76319 60.4643 5.0135 -5.37062e-006 -3.89858e-006 -3.00217 8.0289 -4.95148 0.697699 -59.0107 -8.95013 5.55118 -103.707 48.7431 23.5986 1.52525e-005 3.11965e-006 1.32509e-006 -19.1266 59.0836 11.2357 4.77421e-006 3.55589e-006 3.00885 -8.02888 -4.95144 -0.697664 178.448 14.0262 -1.67545 -180 7.01537e-015 178.881 176.511 23.8308 -179.872 -2.45299e-006 -1.98149e-007 0.513256 -22.439 71.5404 23.088 8.13649 25.2326 -3.48774 -179.282 12.6792 1.64253 4.54188e-006 -4.6773e-006 -1.07842 -0.958614 -24.9892 0.627308 -8.96817e-007 -4.47747e-006 -0.759212 23.9461 73.8663 -26.0185 -8.13649 25.2327 3.48774 
52.8383 86.6467 4.16585 -0.0756787 -1.48203 1.45233 2.36886 -0.439291 0.539372 4.74272 3.13635 0.788685 4.73921 4.77809 0.709878 -26.3312 18.1679 8.06749 7.83112 16.2352 -1.50095 38.668 -5.60546 -2.14269 109.384 37.9578 -27.523 4.8945e-009 -1.21252e-006 -3.59924e-006 -3.58006 60.961 5.61995 -5.37062e-006 -3.89858e-006 -3.00215 8.0289 -4.95148 0.697699 -58.8216 -8.88867 5.50882 -103.93 49.314 23.2387 1.52525e-005 3.11965e-006 1.32509e-006 -19.3802 58.5218 11.3018 4.77421e-006 3.55589e-006 3.00885 -8.02888 -4.95144 -0.697664 178.439 14.074 -1.68635 -180 7.01537e-015 178.883 176.528 23.8412 -179.878 -2.45299e-006 -1.98149e-007 0.512792 -22.4096 71.5404 23.0849 8.13649 25.2326 -3.48774 -179.289 12.7074 1.60048 4.54188e-006 -4.6773e-006 -1.07996 -1.02033 -25.0067 0.602051 -8.96817e-007 -4.47747e-006 -0.758229 24.0647 73.888 -26.0674 -8.13649 25.2327 3.48774 
